<svg width="21" height="23" viewBox="0 0 21 23" fill="none" xmlns="http://www.w3.org/2000/svg">
  <path d="M1.58848 21.1587L1.58849 21.1587L2.87137 6.87181L2.87137 6.8718L3.09547 6.89192C3.13034 6.50328 3.45606 6.2056 3.8462 6.2056L1.58848 21.1587ZM1.58848 21.1587C1.56395 21.4325 1.65556 21.7038 1.84101 21.9066C2.02645 22.1094 2.28861 22.2249 2.56332 22.2249H18.4349H18.4349H18.4349H18.4349H18.435H18.435H18.435H18.435H18.435H18.435H18.4351H18.4351H18.4351H18.4351H18.4351H18.4351H18.4352H18.4352H18.4352H18.4352H18.4352H18.4352H18.4352H18.4353H18.4353H18.4353H18.4353H18.4353H18.4353H18.4354H18.4354H18.4354H18.4354H18.4354H18.4354H18.4354H18.4355H18.4355H18.4355H18.4355H18.4355H18.4355H18.4356H18.4356H18.4356H18.4356H18.4356H18.4356H18.4357H18.4357H18.4357H18.4357H18.4357H18.4357H18.4358H18.4358H18.4358H18.4358H18.4358H18.4358H18.4359H18.4359H18.4359H18.4359H18.4359H18.4359H18.436H18.436H18.436H18.436H18.436H18.436H18.4361H18.4361H18.4361H18.4361H18.4361H18.4361H18.4362H18.4362H18.4362H18.4362H18.4362H18.4362H18.4362H18.4363H18.4363H18.4363H18.4363H18.4363H18.4363H18.4364H18.4364H18.4364H18.4364H18.4364H18.4364H18.4365H18.4365H18.4365H18.4365H18.4365H18.4365H18.4366H18.4366H18.4366H18.4366H18.4366H18.4366H18.4366H18.4367H18.4367H18.4367H18.4367H18.4367H18.4367H18.4368H18.4368H18.4368H18.4368H18.4368H18.4368H18.4368H18.4369H18.4369H18.4369C18.9776 22.2249 19.4157 21.7867 19.4157 21.2461L19.4157 21.2456C19.4155 21.1949 19.4116 21.1444 19.4039 21.0949L18.1267 6.8718C18.0815 6.36713 17.6585 5.9806 17.1519 5.9806H14.7417V5.01709C14.7417 2.67781 12.839 0.775 10.4998 0.775C8.1607 0.775 6.25822 2.67783 6.25822 5.01709V5.9806L1.58848 21.1587ZM8.21573 5.01709C8.21573 3.75753 9.24063 2.7325 10.4999 2.7325C11.7593 2.7325 12.7843 3.75755 12.7843 5.01709V5.9806H8.21573V5.01709ZM16.2572 7.9381L17.3643 20.2675H3.63393L4.74103 7.9381H6.25822V9.06101C6.25822 9.60153 6.69632 10.0398 7.23698 10.0398C7.77763 10.0398 8.21573 9.60153 8.21573 9.06101V7.9381H12.7843V9.06101C12.7843 9.60153 13.2224 10.0398 13.763 10.0398C14.3037 10.0398 14.7418 9.60153 14.7418 9.06101V7.9381H16.2572Z" fill="black" stroke="white" stroke-width="0.45" />
</svg>