<svg width="18" height="18" viewBox="0 0 18 18" fill="none" xmlns="http://www.w3.org/2000/svg">
  <path d="M0.100389 9.08618L0.100384 9.08548C0.0454258 1.13534 9.72053 -2.90653 15.325 2.72754C20.8699 8.35402 16.8664 17.9073 8.95738 17.9003H8.95729C7.55596 17.9003 6.21891 17.5861 4.98245 16.9665C3.74827 16.348 2.25518 16.5979 1.26698 17.5861L1.12946 17.7237C1.01412 17.839 0.85989 17.9003 0.702907 17.9003C0.625234 17.9003 0.546932 17.8853 0.472266 17.8544C0.246934 17.761 0.1 17.5411 0.1 17.2972L0.100389 9.08618ZM5.52284 15.8882C6.59211 16.4242 7.75112 16.6953 8.96521 16.6942C15.7737 16.7041 19.2641 8.38792 14.4677 3.57592L14.4676 3.57583C9.60349 -1.2919 1.27119 2.19483 1.30645 9.07652L1.30647 9.08018L1.30648 9.0828L1.30617 15.8696L1.30616 16.0374L1.45373 15.9576C2.10531 15.6052 2.83011 15.4235 3.55978 15.4235C4.22728 15.4235 4.89874 15.5754 5.52284 15.8882ZM6.78987 9.00128C6.78987 9.43075 6.44224 9.77903 6.01302 9.78009C4.9781 9.73708 4.97825 8.26531 6.01302 8.22247C6.44224 8.22353 6.78987 8.57181 6.78987 9.00128ZM8.25536 8.99932C8.25642 8.5701 8.6047 8.22247 9.03417 8.22247C9.46363 8.22247 9.81192 8.5701 9.81297 8.99932C9.77014 10.0341 8.29836 10.0342 8.25536 8.99932ZM12.8361 8.99932C12.7932 10.0341 11.3215 10.0342 11.2785 8.99932C11.2795 8.5701 11.6278 8.22247 12.0573 8.22247C12.4867 8.22247 12.835 8.5701 12.8361 8.99932Z" fill="#079294" stroke="#079294" stroke-width="0.2" />
</svg>