<svg width="20" height="18" viewBox="0 0 20 18" fill="none" xmlns="http://www.w3.org/2000/svg">
  <path d="M9.866 3.62448L10 3.89086L10.134 3.62448C11.0568 1.79002 12.5995 0.827734 14.6094 0.827734C16.0495 0.827734 17.3652 1.36143 18.3179 2.32618C19.3171 3.33808 19.85 4.72707 19.85 6.3525C19.85 8.27967 18.623 10.432 16.1385 12.7509C13.8893 14.8503 11.4219 16.3252 10.9515 16.5988L11.027 16.7284L10.9515 16.5988C10.8531 16.656 10.6941 16.748 10.5597 16.8257L10.3872 16.9253L10.3347 16.9556L10.3205 16.9638L10.3168 16.966L10.3158 16.9665L10.3156 16.9666L10.3155 16.9667L10.3155 16.9667L10.3905 17.0966L10.3155 16.9667L10.0001 17.1487L9.68467 16.9668L9.60973 17.0967L9.68465 16.9668L9.68464 16.9668L9.68458 16.9667L9.68434 16.9666L9.6834 16.966L9.67968 16.9639L9.6654 16.9557L9.61294 16.9254L9.44032 16.8258C9.30574 16.748 9.14668 16.6561 9.04817 16.5988C8.5778 16.3253 6.11058 14.8505 3.86126 12.7509C1.37695 10.432 0.15 8.27967 0.15 6.3525C0.15 4.72707 0.682939 3.33809 1.68212 2.32622C2.63483 1.36143 3.95051 0.827734 5.39062 0.827734C7.40055 0.827734 8.94318 1.79002 9.866 3.62448ZM10.3169 15.5074L10.3169 15.5074C10.769 15.2445 13.1259 13.8358 15.2771 11.828C17.4169 9.83075 18.5875 7.93715 18.5875 6.3525C18.5875 5.10919 18.183 4.04298 17.4785 3.28619C16.7732 2.52862 15.7756 2.09023 14.6094 2.09023C13.8554 2.09023 13.1913 2.26632 12.6268 2.6215C12.0626 2.97653 11.6066 3.50503 11.2596 4.19638C10.8281 5.05611 10.6855 5.93404 10.6446 6.26793H9.35541C9.31398 5.92836 9.16848 5.03125 8.72053 4.15722C8.36844 3.47011 7.91894 2.951 7.3611 2.60452C6.80305 2.2579 6.14654 2.09023 5.39062 2.09023C4.22436 2.09023 3.22677 2.52862 2.52154 3.28619C1.81705 4.04298 1.4125 5.10919 1.4125 6.3525C1.4125 7.93715 2.58304 9.83075 4.72273 11.828L4.82508 11.7183C6.96414 13.7149 9.30969 15.1169 9.75816 15.3777L9.68274 15.5074C9.68275 15.5074 9.68276 15.5074 9.68276 15.5074C9.74607 15.5442 9.83436 15.5953 9.92482 15.6476L9.99993 15.691L10.075 15.6476L10.3169 15.5074Z" fill="#079294" stroke="#079294" stroke-width="0.3" />
</svg>