<svg width="20" height="18" viewBox="0 0 20 18" fill="none" xmlns="http://www.w3.org/2000/svg">
  <path d="M18.4246 2.22078C17.442 1.22574 16.0871 0.677734 14.6094 0.677734C12.5414 0.677734 10.9477 1.67324 10 3.55707C9.05234 1.67324 7.45863 0.677734 5.39062 0.677734C3.91293 0.677734 2.55801 1.22574 1.57539 2.22082C0.544766 3.26453 0 4.69324 0 6.3525C0 8.34277 1.26469 10.5324 3.75891 12.8606C6.02039 14.9715 8.49887 16.4529 8.97277 16.7285C9.17023 16.8433 9.60973 17.0967 9.60973 17.0967L10.0001 17.3219L10.3905 17.0966C10.3905 17.0966 10.8296 16.8432 11.027 16.7284C11.5009 16.4529 13.9795 14.9713 16.2409 12.8605C18.7352 10.5324 20 8.34277 20 6.3525C20 4.69324 19.4552 3.26453 18.4246 2.22078ZM15.1748 11.7183C13.0357 13.7148 10.69 15.1169 10.2415 15.3777C10.1784 15.4144 10.0903 15.4654 9.99988 15.5177C9.90945 15.4655 9.82129 15.4144 9.75816 15.3777C9.30969 15.1169 6.96414 13.7149 4.82508 11.7183C2.6907 9.72605 1.5625 7.87059 1.5625 6.3525C1.5625 3.93125 3.13668 2.24023 5.39062 2.24023C6.85687 2.24023 7.90246 2.88965 8.58703 4.22562C9.13641 5.29754 9.21969 6.40887 9.22047 6.41996L9.25047 6.41793H10.7796C10.7803 6.40723 10.8637 5.31953 11.3936 4.26367C12.0675 2.92102 13.1495 2.24023 14.6094 2.24023C16.8633 2.24023 18.4375 3.93125 18.4375 6.3525C18.4375 7.87059 17.3093 9.72605 15.1748 11.7183Z" fill="black" />
</svg>