<svg width="12" height="13" viewBox="0 0 12 13" fill="none" xmlns="http://www.w3.org/2000/svg">
  <path fill-rule="evenodd" clip-rule="evenodd" d="M8.39105 8.2523H7.86387L7.68062 8.07038C8.32798 7.31547 8.7217 6.3368 8.7217 5.26452C8.7217 2.88094 6.7896 0.948838 4.40602 0.948838C2.02243 0.948838 0.090332 2.88094 0.090332 5.26452C0.090332 7.64811 2.02243 9.58021 4.40602 9.58021C5.4783 9.58021 6.4563 9.18715 7.21121 8.54046L7.39446 8.72238V9.24823L10.7129 12.562L11.7028 11.5721L8.39105 8.2523ZM4.4068 8.25212C2.75622 8.25212 1.41902 6.91492 1.41902 5.26433C1.41902 3.61442 2.75622 2.27655 4.4068 2.27655C6.05672 2.27655 7.39458 3.61442 7.39458 5.26433C7.39458 6.91492 6.05672 8.25212 4.4068 8.25212Z" fill="#141414" />
</svg>